<svg xmlns="http://www.w3.org/2000/svg" xmlns:xlink="http://www.w3.org/1999/xlink" width="59" height="55" viewBox="0 0 59 55">
  <defs>
    <clipPath id="clip-path">
      <rect id="Rectangle_607" data-name="Rectangle 607" width="59" height="55"/>
    </clipPath>
  </defs>
  <g id="create" clip-path="url(#clip-path)">
    <g id="create-2" data-name="create" clip-path="url(#clip-path)">
      <g id="creation" transform="translate(-13.688 -18.884)">
        <circle id="Ellipse_86" data-name="Ellipse 86" cx="7.19" cy="7.19" r="7.19" transform="translate(49.689 31)" fill="none" stroke="#fff" stroke-miterlimit="10" stroke-width="2"/>
        <path id="Tracé_1245" data-name="Tracé 1245" d="M49.689,39.435c0-.049.007-.1.007-.146H42.128c-3.019,0-2.42-3.548-4.632-3.548H30.375a3.688,3.688,0,0,0-3.687,3.687V56.771c0,2.145,1.381,3.886,3.085,3.886H53.794c1.7,0,3.085-1.74,3.085-3.886V46.625A7.19,7.19,0,0,1,49.689,39.435Z" transform="translate(0 -1.245)" fill="none" stroke="#fff" stroke-miterlimit="10" stroke-width="2"/>
        <line id="Ligne_78" data-name="Ligne 78" x2="9.464" transform="translate(52.147 38.19)" fill="none" stroke="#fff" stroke-miterlimit="10" stroke-width="2"/>
        <line id="Ligne_79" data-name="Ligne 79" y2="9.464" transform="translate(56.879 33.458)" fill="none" stroke="#fff" stroke-miterlimit="10" stroke-width="2"/>
      </g>
    </g>
  </g>
</svg>
