<svg xmlns="http://www.w3.org/2000/svg" xmlns:xlink="http://www.w3.org/1999/xlink" width="59" height="55" viewBox="0 0 59 55">
  <defs>
    <clipPath id="clip-path">
      <rect id="Rectangle_608" data-name="Rectangle 608" width="59" height="55"/>
    </clipPath>
  </defs>
  <g id="follow" clip-path="url(#clip-path)">
    <g id="follow-2" data-name="follow" transform="translate(-1)" clip-path="url(#clip-path)">
      <g id="Union_3" data-name="Union 3" transform="translate(5826.999 12487)">
        <path id="Tracé_1351" data-name="Tracé 1351" d="M-5816-12453a5,5,0,0,1,5-5,4.974,4.974,0,0,1,1.361.189l4.053-4.194a5,5,0,0,1-.415-2,5,5,0,0,1,5-5,5,5,0,0,1,5,5,5.007,5.007,0,0,1-.041.646l2.788,2.511A5.066,5.066,0,0,1-5792-12461a4.98,4.98,0,0,1,1.336.182l2.823-2.926A5.048,5.048,0,0,1-5788-12465a5,5,0,0,1,5-5,5,5,0,0,1,5,5,5,5,0,0,1-5,5,5.056,5.056,0,0,1-1.335-.179l-2.824,2.923A5.033,5.033,0,0,1-5787-12456a5,5,0,0,1-5,5,5,5,0,0,1-5-5,4.984,4.984,0,0,1,.179-1.328l-2.272-2.048a5.03,5.03,0,0,1-1.9.373,4.5,4.5,0,0,1-.513-.026l-4.635,4.8a5.1,5.1,0,0,1,.15,1.228,5,5,0,0,1-5,5,4.991,4.991,0,0,1-3.542-1.46A5,5,0,0,1-5816-12453Z" fill="none"/>
        <path id="Tracé_1352" data-name="Tracé 1352" d="M-5811-12450a2.977,2.977,0,0,0,3-3,2.291,2.291,0,0,0-.09-.7l-.26-1.1.76-.8,4.64-4.8.68-.7.99.1h.28a4.236,4.236,0,0,0,1.14-.2l1.17-.5.93.8,2.28,2.1.91.8-.32,1.2a2.753,2.753,0,0,0-.11.8,2.971,2.971,0,0,0,3,3,2.977,2.977,0,0,0,3-3,3.629,3.629,0,0,0-.09-.8l-.28-1,.78-.8,2.82-3,.82-.8,1.14.3a2.264,2.264,0,0,0,.81.1,2.977,2.977,0,0,0,3-3,2.977,2.977,0,0,0-3-3,2.977,2.977,0,0,0-3,3,3.117,3.117,0,0,0,.1.8l.27,1-.77.8-2.82,3-.83.8-1.15-.3a2.182,2.182,0,0,0-.8-.1,2,2,0,0,0-.76.1l-1.03.3-.8-.8-2.79-2.5-.78-.7.14-1c.01-.1.02-.3.02-.4a2.977,2.977,0,0,0-3-3,2.977,2.977,0,0,0-3,3,3.042,3.042,0,0,0,.25,1.2l.53,1.2-.93,1-4.05,4.2-.83.8-1.15-.3a2.291,2.291,0,0,0-.82-.1,2.977,2.977,0,0,0-3,3,2.977,2.977,0,0,0,3,3m0,2a4.977,4.977,0,0,1-5-5,4.977,4.977,0,0,1,5-5,5.993,5.993,0,0,1,1.36.2l4.05-4.2a5.1,5.1,0,0,1-.41-2,4.977,4.977,0,0,1,5-5,4.977,4.977,0,0,1,5,5,3.982,3.982,0,0,1-.04.6l2.79,2.6a5.15,5.15,0,0,1,1.25-.2,5.9,5.9,0,0,1,1.34.2l2.82-2.9a5.766,5.766,0,0,1-.16-1.3,4.977,4.977,0,0,1,5-5,4.977,4.977,0,0,1,5,5,4.977,4.977,0,0,1-5,5,5.739,5.739,0,0,1-1.33-.2l-2.83,2.9a5.235,5.235,0,0,1,.16,1.3,4.977,4.977,0,0,1-5,5,4.977,4.977,0,0,1-5-5,4.338,4.338,0,0,1,.18-1.3l-2.28-2.1a4.075,4.075,0,0,1-1.9.4h-.51l-4.64,4.8a4.928,4.928,0,0,1,.15,1.2A4.977,4.977,0,0,1-5811-12448Z" fill="#fff"/>
      </g>
    </g>
  </g>
</svg>
