<svg xmlns="http://www.w3.org/2000/svg" xmlns:xlink="http://www.w3.org/1999/xlink" width="59" height="55" viewBox="0 0 59 55">
  <defs>
    <clipPath id="clip-Plan_de_travail_2">
      <rect width="59" height="55"/>
    </clipPath>
  </defs>
  <g id="Plan_de_travail_2" data-name="Plan de travail – 2" clip-path="url(#clip-Plan_de_travail_2)">
    <g id="paramètres" transform="translate(-10.625 -15.623)">
      <g id="Groupe_943" data-name="Groupe 943" transform="translate(25.624 27.623)">
        <path id="Tracé_1246" data-name="Tracé 1246" d="M51.407,42.186c0-.627-.006-.676-.006-.676a1.892,1.892,0,0,1,.858-1.746L53.577,39a1.174,1.174,0,0,0,.429-1.6L51.47,33.012a1.174,1.174,0,0,0-1.6-.429l-1.18.681a1.947,1.947,0,0,1-1.956-.109L44.953,32.1a2.014,2.014,0,0,1-1.06-1.668V28.794a1.174,1.174,0,0,0-1.171-1.171H37.651a1.174,1.174,0,0,0-1.171,1.171v1.642a1.991,1.991,0,0,1-1.064,1.658l-1.534.876a2,2,0,0,1-1.972.088l-1.7-.982a1.174,1.174,0,0,0-1.6.429L26.074,36.9a1.174,1.174,0,0,0,.429,1.6l1.659.958A1.859,1.859,0,0,1,29,41.2a8.027,8.027,0,0,0-.038.99v.581a1.88,1.88,0,0,1-.871,1.71l-1.885,1.088a1.174,1.174,0,0,0-.429,1.6l2.536,4.391a1.174,1.174,0,0,0,1.6.429l1.67-.964a1.885,1.885,0,0,1,1.938.133l1.334.851a2.139,2.139,0,0,1,1.035,1.718v2.052a1.174,1.174,0,0,0,1.171,1.171h5.071a1.174,1.174,0,0,0,1.171-1.171V54.128a1.869,1.869,0,0,1,1.087-1.6l1.681-.852a2.12,2.12,0,0,1,2-.045l1.5.868a1.174,1.174,0,0,0,1.6-.429l2.536-4.392a1.174,1.174,0,0,0-.429-1.6L52.1,45.391a1.776,1.776,0,0,1-.8-1.736A8.59,8.59,0,0,0,51.407,42.186Z" transform="translate(-25.624 -27.623)" fill="none" stroke="#fff" stroke-linejoin="round" stroke-miterlimit="10" stroke-width="2"/>
      </g>
      <circle id="Ellipse_87" data-name="Ellipse 87" cx="6.878" cy="6.878" r="6.878" transform="translate(33.015 35.113)" fill="none" stroke="#fff" stroke-linejoin="round" stroke-miterlimit="10" stroke-width="2"/>
    </g>
  </g>
</svg>
